<svg width="1332" height="132" viewBox="0 0 1332 132" fill="none" xmlns="http://www.w3.org/2000/svg">
<path d="M3 129C85.6722 124.291 881.821 126.452 879.549 128.57C879.549 128.57 880.147 127.69 875.632 124.834C868.768 120.497 868.217 85.7039 881.383 83.4557C883.582 83.08 889.148 83.8314 891.317 84.3574C896.123 85.5236 898.179 91.6431 898.897 92.1059C900.504 92.1991 902.506 89.7165 904.148 90.5941C906.222 91.7032 907.114 98.8415 920.397 100.471C921.579 100.615 922.755 100.939 923.652 99.9115C926.115 97.0983 925.331 91.598 931.555 92.1901C933.305 92.3554 934.535 94.838 935.744 95.9682C942.632 102.421 942.929 99.7823 947.74 96.8969C955.478 92.2592 962.127 91.2553 964.599 99.9957C965.099 101.766 964.428 102.896 962.597 102.803C959.874 102.662 961.161 99.1601 958.704 97.9759C958.106 97.2576 955.829 96.3559 954.09 100.555C947.064 117.531 959.144 120.5 960.67 117.555C961.4 116.145 960.64 114.426 960.918 111.414C961.11 109.322 961.469 106.025 963.701 105.791C965.823 105.568 967.735 105.881 970.093 106.903C971.365 105.568 970.649 103.626 972.487 103.654C974.503 103.687 978.244 104.675 978.806 106.434C979.342 106.855 981.167 106.701 981.538 107.23C983.576 110.137 983.166 114.074 979.474 116.608C978.899 117.002 975.964 116.403 975.335 116.04C975.177 116.608 974.952 116.917 974.668 117.392C973.818 118.814 969.566 118.369 967.84 118.023C966.463 117.75 967.669 115.321 966.514 114.889C965.703 114.585 964.785 114.609 963.932 114.546C962.968 115.889 963.48 119.502 962.69 121.492C959.231 130.235 951.49 128.011 947.462 124.248C944.56 121.534 942.354 118.279 938.434 118.874C934.257 119.511 932.375 125.55 928.162 125.231C923.488 124.876 922.994 115.096 918.631 114.582C915.244 114.185 908.08 115.634 905.315 117.804C903.736 119.045 901.114 124.194 898.445 122.18C897.85 121.732 897.428 121.101 896.931 120.542C894.708 118.035 894.908 120.732 894.376 122.439C893.412 125.507 887.457 126.1 884.983 124.056C882.508 122.012 880.324 119.193 879.57 116.067C878.331 110.915 877.655 105.514 878.717 100.323C879.121 98.3546 880.402 96.0072 882.379 96.3108C885.102 96.7286 884.531 100.729 884.561 103.494C884.618 108.79 889.875 112.776 895.097 113.53C905.298 115.003 916.695 107.266 926.142 112.713C928.081 113.831 929.807 115.505 932.016 115.862C934.972 116.343 937.83 114.318 940.822 114.45C944.377 114.609 947.004 117.642 949.799 119.851C957.037 125.574 966.888 126.286 976.089 126.695C994.289 127.503 1010.14 127.62 1028.37 126.977C1030 126.92 1032 126.379 1032.03 124.359C1032.09 120.461 1023.61 121.606 1021.23 121.588C1002.05 121.447 1001.52 121.318 1000.49 122.595C999.809 123.434 999.809 124.098 998.933 124.723C997.972 125.405 996.488 124.639 996.18 123.497C995.659 121.546 997.466 121.793 997.936 120.377C999.115 116.83 992.55 116.121 1000.76 109.43C1002.97 107.63 1003.39 103.954 1002.32 101.441C1001.53 99.596 1003.25 100.353 1006.46 96.2867C1010.04 91.7573 1010.93 86.6507 1011.14 80.2397C1011.44 70.763 1011.76 55.7318 1005.21 56.0444C1003.46 56.1286 1001.5 54.6648 1002.11 52.7232C1002.54 51.3677 1003.47 51.5931 1004.53 51.1933C1005.54 50.8176 1005.2 51.2114 1005.17 50.2766C1005.14 48.9692 1004.65 48.1005 1005.84 47.5175C1006.88 47.0095 1008.08 47.5265 1008.98 46.6879C1010.37 45.3925 1009.64 43.5681 1009.55 42.5101C1008.92 35.3296 1000.22 34.1875 1002.24 27.2716C1003.51 22.9314 1008.7 22.5136 1013.14 22.6669C1012.91 21.0559 1011.62 19.6703 1011.58 18.0593C1011.56 17.1306 1013.51 16.2048 1013.38 15.2761C1012.95 14.8403 1010.86 15.3482 1010.87 14.714C1010.91 12.1653 1010.21 9.46922 1010.95 7.35627C1011.86 7.13085 1012.78 7.35326 1013.69 7.12784C1012.62 6.32834 1012.03 4.48589 1012.19 3.15741C1015.09 2.80575 1022.45 3.14839 1023.29 3.18145C1025.42 3.26561 1024.09 5.33348 1022.53 6.8934C1022.78 7.55764 1025.01 7.01663 1025.1 7.69891C1025.35 9.52032 1025.64 14.164 1024.77 14.3444C1024.13 14.4766 1022.89 14.4105 1022.4 14.9124C1021.34 15.9764 1024.44 17.2057 1024 18.2156C1023.9 19.6072 1022.54 20.3947 1022.98 22.177C1023.15 22.8503 1025.89 22.8413 1026.97 23.0667C1029.28 23.5506 1030.96 23.7369 1032.28 24.4012C1034.08 25.2999 1036.49 26.6554 1035.96 28.6C1035.55 30.0728 1032.86 29.3214 1031.35 29.09C1027.08 28.4317 1022.81 29.2793 1018.54 28.6241C1016.69 28.3386 1010.94 28.3235 1011.89 31.8341C1012.91 35.5791 1034.36 31.783 1035.33 32.9612C1036.59 34.4971 1026.21 41.5363 1029.09 46.1739C1029.48 46.8051 1032.45 46.6909 1033.04 47.2019C1033.83 47.8691 1033.15 50.1173 1033.61 50.8567C1034.35 52.0319 1036.3 51.2715 1036.58 53.2251C1037.14 57.0303 1030.06 54.9534 1028.37 56.3961C1025.86 58.5331 1026.68 78.3943 1027.02 81.7335C1027.57 87.1827 1030.01 92.8032 1033.09 96.8879C1033.62 97.5942 1036.29 99.7583 1036.11 100.597C1036.02 101 1035.71 101.309 1035.52 101.676C1034.69 103.278 1035.49 106.286 1036.52 107.597C1037.32 108.616 1038.37 109.397 1039.34 110.254C1040.27 111.068 1042.44 115.703 1041.35 117.095C1040.71 117.927 1040.26 120.704 1040.4 120.96C1040.69 121.507 1041.94 121.321 1042.3 123.172C1042.65 124.963 1042.05 128.216 1044.35 128.176C1050.39 128.074 1323.02 128.077 1329 128.095" stroke="black" stroke-opacity="0.1" stroke-width="5" stroke-miterlimit="10" stroke-linecap="round" stroke-linejoin="round"/>
</svg>
