<svg width="40" height="40" viewBox="0 0 40 40" fill="none" xmlns="http://www.w3.org/2000/svg">
<g clip-path="url(#clip0)">
<path d="M27.0022 26.3388C27.0022 24.5703 25.8695 23.0618 24.2918 22.4992C24.9792 21.7469 25.3558 20.7792 25.3558 19.7532C25.3558 17.5586 23.612 15.7646 21.4373 15.6817V14.4479C21.4373 14.0156 21.0869 13.6651 20.6545 13.6651C20.2222 13.6651 19.8717 14.0156 19.8717 14.4479V15.6777H18.3012V14.4479C18.3012 14.0156 17.9508 13.6651 17.5184 13.6651C17.0861 13.6651 16.7356 14.0156 16.7356 14.4479V15.6777H15.9504C15.518 15.6777 15.1676 16.0281 15.1676 16.4605V23.046V29.6317C15.1676 30.064 15.518 30.4145 15.9504 30.4145H16.7356V31.5917C16.7356 32.024 17.0861 32.3745 17.5184 32.3745C17.9508 32.3745 18.3012 32.024 18.3012 31.5917V30.4145H19.8717V31.5917C19.8717 32.024 20.2222 32.3745 20.6545 32.3745C21.0868 32.3745 21.4373 32.024 21.4373 31.5917V30.4145H22.9265C24.0144 30.4145 25.0377 29.9907 25.8086 29.2209C26.5783 28.451 27.0022 27.4275 27.0022 26.3388ZM16.7333 17.2431H21.2802C22.6642 17.2431 23.7902 18.3691 23.7902 19.7531C23.7902 20.4238 23.5292 21.0541 23.0555 21.5278C22.5807 22.002 21.9501 22.2631 21.2802 22.2631H16.7333V17.2431ZM24.7019 28.1134C24.2271 28.5876 23.5965 28.8488 22.9265 28.8488H16.7333V23.8288H22.9265C24.3105 23.8288 25.4366 24.9547 25.4366 26.3388C25.4366 27.0094 25.1755 27.6397 24.7019 28.1134Z" fill="#7100D1"/>
<path d="M33.7828 24.2667L31.3281 20.1381C31.1072 19.7666 30.627 19.6444 30.2552 19.8653C29.8837 20.0863 29.7615 20.5666 29.9824 20.9382L32.4411 25.0734C34.283 28.103 34.1314 31.9176 32.0548 34.7913C30.4065 37.0726 27.7421 38.4345 24.9277 38.4345H15.0717C12.2573 38.4345 9.59296 37.0726 7.94461 34.7913C5.86804 31.9174 5.71648 28.1029 7.55843 25.0734L16.8061 9.86297H23.1935L26.3262 15.0157C26.5509 15.3851 27.0324 15.5026 27.4018 15.278C27.7712 15.0534 27.8886 14.5718 27.664 14.2024L24.4164 8.86094V4.65125L26.8019 1.23055C26.9687 0.991328 26.9887 0.679219 26.8539 0.420703C26.719 0.162109 26.4516 0 26.1599 0C25.273 0 24.8045 0.143125 24.3912 0.269375C24.0379 0.377266 23.7328 0.470391 23.0796 0.470391C22.4265 0.470391 22.1214 0.377187 21.7681 0.269375C21.3548 0.143125 20.8863 0 19.9993 0C19.1124 0 18.644 0.143125 18.2307 0.269375C17.8775 0.377266 17.5725 0.470391 16.9194 0.470391C16.2664 0.470391 15.9613 0.377187 15.6081 0.269375C15.1948 0.143125 14.7264 0 13.8395 0C13.5494 0 13.283 0.160469 13.1475 0.416953C13.0119 0.673437 13.0293 0.983906 13.1927 1.22367L15.5831 4.7307V8.86102L6.22062 24.2601C4.0507 27.829 4.22929 32.3227 6.67562 35.7082C8.61742 38.3955 11.7562 40 15.0717 40H24.9277C28.2433 40 31.382 38.3955 33.3238 35.7082C35.77 32.3227 35.9487 27.8291 33.7828 24.2667ZM22.8509 5.32094V8.2975H17.1487V5.32094H22.8509ZM16.9194 2.03594C17.8063 2.03594 18.2748 1.89281 18.688 1.76656C19.0412 1.65867 19.3462 1.56555 19.9993 1.56555C20.6525 1.56555 20.9576 1.65875 21.3109 1.76656C21.7242 1.89281 22.1927 2.03594 23.0796 2.03594C23.6918 2.03594 24.1045 1.96781 24.4376 1.88406L23.1326 3.75539H16.813L15.5323 1.87656C15.8704 1.96375 16.2893 2.03594 16.9194 2.03594Z" fill="#7100D1"/>
<path d="M15.0717 35.3033C14.6394 35.3033 14.2889 35.6538 14.2889 36.0862C14.2889 36.5185 14.6394 36.869 15.0717 36.869H24.9277C25.36 36.869 25.7105 36.5185 25.7105 36.0862C25.7105 35.6538 25.3601 35.3033 24.9277 35.3033H15.0717Z" fill="#7100D1"/>
<path d="M29.3166 18.1585C29.641 17.8742 29.6735 17.3807 29.3892 17.0563C29.1049 16.7318 28.6114 16.6993 28.287 16.9836C27.9625 17.2679 27.93 17.7614 28.2143 18.0859C28.4986 18.4103 28.9921 18.4428 29.3166 18.1585Z" fill="#7100D1"/>
</g>
<defs>
<clipPath id="clip0">
<rect width="40" height="40" fill="white"/>
</clipPath>
</defs>
</svg>
