<svg width="49" height="48" viewBox="0 0 49 48" fill="none" xmlns="http://www.w3.org/2000/svg">
<g clip-path="url(#clip0)">
<path d="M33.0777 31.6065C33.0777 29.4843 31.6902 27.6742 29.7575 26.999C30.5996 26.0963 31.0608 24.935 31.0608 23.7039C31.0608 21.0703 28.9248 18.9176 26.2608 18.818V17.3375C26.2608 16.8187 25.8314 16.3981 25.3018 16.3981C24.7723 16.3981 24.3429 16.8187 24.3429 17.3375V18.8132H22.419V17.3375C22.419 16.8187 21.9897 16.3981 21.4601 16.3981C20.9305 16.3981 20.5012 16.8187 20.5012 17.3375V18.8132H19.5392C19.0096 18.8132 18.5803 19.2338 18.5803 19.7526V27.6552V35.558C18.5803 36.0768 19.0096 36.4974 19.5392 36.4974H20.5012V37.91C20.5012 38.4288 20.9305 38.8494 21.4601 38.8494C21.9897 38.8494 22.419 38.4288 22.419 37.91V36.4974H24.3429V37.91C24.3429 38.4288 24.7722 38.8494 25.3018 38.8494C25.8313 38.8494 26.2608 38.4288 26.2608 37.91V36.4974H28.0851C29.4176 36.4974 30.6712 35.9889 31.6155 35.0651C32.5584 34.1412 33.0777 32.913 33.0777 31.6065ZM20.4984 20.6918H26.0683C27.7637 20.6918 29.1431 22.0429 29.1431 23.7038C29.1431 24.5085 28.8233 25.2649 28.2431 25.8333C27.6614 26.4024 26.889 26.7158 26.0683 26.7158H20.4984V20.6918ZM30.2599 33.7361C29.6782 34.3051 28.9058 34.6185 28.0851 34.6185H20.4984V28.5945H28.0851C29.7804 28.5945 31.1598 29.9457 31.1598 31.6065C31.1598 32.4113 30.8401 33.1677 30.2599 33.7361Z" fill="white"/>
<path d="M41.384 29.1201L38.377 24.1658C38.1063 23.7199 37.5181 23.5732 37.0627 23.8384C36.6075 24.1035 36.4578 24.68 36.7285 25.1258L39.7404 30.0881C41.9967 33.7237 41.811 38.3011 39.2672 41.7496C37.248 44.4871 33.9841 46.1213 30.5365 46.1213H18.4629C15.0153 46.1213 11.7514 44.4871 9.73217 41.7495C7.18838 38.3009 7.00272 33.7235 9.25911 30.088L20.5875 11.8356H28.4121L32.2497 18.0188C32.5248 18.4621 33.1147 18.6031 33.5672 18.3336C34.0197 18.064 34.1636 17.4862 33.8884 17.0429L29.9101 10.6331V5.5815L32.8324 1.47666C33.0367 1.18959 33.0612 0.815063 32.8961 0.504844C32.7308 0.194531 32.4032 0 32.0459 0C30.9595 0 30.3856 0.17175 29.8792 0.32325C29.4464 0.452719 29.0727 0.564469 28.2725 0.564469C27.4725 0.564469 27.0987 0.452625 26.666 0.32325C26.1597 0.17175 25.5858 0 24.4992 0C23.4127 0 22.8389 0.17175 22.3326 0.32325C21.9 0.452719 21.5263 0.564469 20.7264 0.564469C19.9264 0.564469 19.5527 0.452625 19.12 0.32325C18.6137 0.17175 18.0399 0 16.9534 0C16.598 0 16.2718 0.192562 16.1057 0.500344C15.9397 0.808125 15.9609 1.18069 16.1611 1.46841L19.0894 5.67684V10.6332L7.62029 29.1121C4.96213 33.3948 5.18091 38.7873 8.17766 42.8498C10.5564 46.0747 14.4013 48 18.4629 48H30.5365C34.598 48 38.4429 46.0747 40.8217 42.8498C43.8183 38.7873 44.0372 33.3949 41.384 29.1201ZM27.9923 6.38513V9.957H21.0071V6.38513H27.9923ZM20.7264 2.44313C21.8128 2.44313 22.3866 2.27137 22.8929 2.11987C23.3256 1.99041 23.6992 1.87866 24.4992 1.87866C25.2993 1.87866 25.6731 1.9905 26.1058 2.11987C26.6122 2.27137 27.1861 2.44313 28.2725 2.44313C29.0225 2.44313 29.5281 2.36137 29.9361 2.26087L28.3374 4.50647H20.5959L19.0271 2.25187C19.4413 2.3565 19.9544 2.44313 20.7264 2.44313Z" fill="white"/>
<path d="M18.4629 42.364C17.9333 42.364 17.5039 42.7845 17.5039 43.3033C17.5039 43.8222 17.9333 44.2427 18.4629 44.2427H30.5365C31.066 44.2427 31.4954 43.8222 31.4954 43.3033C31.4954 42.7845 31.0661 42.364 30.5365 42.364H18.4629Z" fill="white"/>
<path d="M35.9128 21.7902C36.3103 21.4491 36.3501 20.8569 36.0018 20.4676C35.6535 20.0782 35.049 20.0392 34.6516 20.3804C34.2542 20.7216 34.2143 21.3137 34.5626 21.7031C34.9109 22.0924 35.5154 22.1314 35.9128 21.7902Z" fill="white"/>
</g>
<defs>
<clipPath id="clip0">
<rect width="49" height="48" fill="white"/>
</clipPath>
</defs>
</svg>
