<svg width="47" height="47" viewBox="0 0 47 47" fill="none" xmlns="http://www.w3.org/2000/svg">
<g clip-path="url(#clip0)">
<path d="M46.9748 29.414C46.8577 26.7211 46.3894 23.7355 45.6869 20.9256C44.9844 18.2327 44.1063 15.7155 43.0526 13.7836C38.9548 6.58314 34.5057 7.69541 29.1785 9.10039C27.4808 9.51017 25.6661 9.9785 23.7928 10.1541H23.2074C21.3341 9.9785 19.5193 9.51017 17.8216 9.10039C12.4945 7.75396 8.04538 6.58314 3.94754 13.8422C2.89381 15.774 1.95716 18.2913 1.31321 20.9841C0.610728 23.7941 0.142404 26.7796 0.0253232 29.4725C-0.0917579 32.4581 0.200945 34.6241 0.844891 36.1461C1.48884 37.5511 2.42548 38.4292 3.65484 38.7804C4.76711 39.0731 6.055 38.9561 7.40143 38.3707C9.68451 37.434 12.3188 35.4436 14.8946 33.0435C16.7094 31.2873 20.1047 30.4091 23.5001 30.4091C26.8954 30.4091 30.2908 31.2873 32.1055 33.0435C34.6813 35.4436 37.3156 37.434 39.5987 38.3707C40.9452 38.8975 42.233 39.0731 43.3453 38.7804C44.5161 38.4292 45.5113 37.6096 46.1553 36.0876C46.7992 34.6241 47.0919 32.4581 46.9748 29.414ZM44.1649 35.268C43.8136 36.0876 43.3453 36.5559 42.7599 36.7315C42.116 36.9071 41.2964 36.7901 40.3597 36.4388C38.3108 35.6193 35.9107 33.8045 33.569 31.58C31.3445 29.3554 27.4223 28.2431 23.5001 28.2431C19.5779 28.2431 15.6556 29.3554 13.3726 31.4629C10.9724 33.6874 8.57224 35.5607 6.58186 36.3217C5.64521 36.673 4.82565 36.8486 4.1817 36.6144C3.5963 36.4388 3.12797 35.9705 2.77673 35.1509C2.3084 34.0387 2.07424 32.2239 2.19132 29.531C2.3084 27.0138 2.71819 24.1453 3.42067 21.4524C4.06462 18.9352 4.88419 16.5936 5.87938 14.8374C9.09911 9.04185 12.8457 9.9785 17.2948 11.1493C19.1095 11.6176 20.9828 12.086 23.0318 12.2616C23.0903 12.2616 23.0903 12.2616 23.1488 12.2616H23.7928C23.8513 12.2616 23.8513 12.2616 23.9099 12.2616C26.0173 12.086 27.8906 11.6176 29.7054 11.1493C34.1545 10.037 37.901 9.04185 41.1208 14.8374C42.116 16.5936 42.9355 18.8767 43.5795 21.4524C44.2234 24.1453 44.6917 26.9553 44.8088 29.531C44.9259 32.2239 44.6917 34.0387 44.1649 35.268Z" fill="white"/>
<path d="M18.1144 17.9985C17.529 17.4716 16.8265 17.0619 16.0069 17.0033C15.9484 16.2423 15.5971 15.4813 15.0703 14.9544L15.0117 14.8959C14.3678 14.2519 13.5482 13.9007 12.6116 13.9007C11.6749 13.9007 10.7968 14.3105 10.2114 14.8959C9.68454 15.4227 9.27475 16.1837 9.21621 17.0033C8.39664 17.0619 7.69416 17.4131 7.10875 17.94L7.05021 17.9985C6.40627 18.6425 6.05502 19.462 6.05502 20.3987C6.05502 21.3353 6.46481 22.2134 7.05021 22.7988C7.63562 23.3842 8.3381 23.7355 9.21621 23.794C9.27475 24.6136 9.626 25.3746 10.2114 25.9015C10.8553 26.5454 11.6749 26.8967 12.6116 26.8967C13.5482 26.8967 14.4263 26.4869 15.0117 25.9015C15.5386 25.3161 15.9484 24.6136 16.0069 23.794C16.8265 23.7355 17.5875 23.3842 18.1144 22.7988C18.7583 22.1549 19.1096 21.3353 19.1096 20.3987C19.1096 19.462 18.6998 18.5839 18.1144 17.9985ZM16.6509 21.2768C16.4167 21.5109 16.124 21.628 15.7727 21.628H14.9532C14.3678 21.628 13.8409 22.0963 13.8409 22.7403V23.5013C13.8409 23.8526 13.7238 24.1453 13.4897 24.3794C13.2555 24.6136 12.9628 24.7307 12.6116 24.7307C12.2603 24.7307 11.9676 24.6136 11.7335 24.3794C11.4993 24.1453 11.3822 23.8526 11.3822 23.5013V22.6817C11.3822 22.0963 10.9139 21.5695 10.2699 21.5695H9.45037C9.09913 21.5695 8.80643 21.4524 8.57227 21.2182C8.39664 21.0426 8.22102 20.7499 8.22102 20.3987C8.22102 20.0474 8.3381 19.7547 8.57227 19.5206C8.57227 19.5206 8.57227 19.5206 8.63081 19.462C8.86497 19.2864 9.15767 19.1693 9.45037 19.1693H10.2699C10.8553 19.1693 11.3822 18.701 11.3822 18.057V17.2375C11.3822 16.8862 11.4993 16.5935 11.7335 16.3594C11.9676 16.1252 12.2603 16.0081 12.6116 16.0081C12.9628 16.0081 13.2555 16.1252 13.4897 16.3594C13.4897 16.3594 13.4897 16.3594 13.5482 16.4179C13.7238 16.6521 13.8409 16.9448 13.8409 17.2375V18.057C13.8409 18.6425 14.3092 19.1693 14.9532 19.1693H15.7727C16.124 19.1693 16.4167 19.2864 16.6509 19.5206C16.885 19.7547 17.0021 20.0474 17.0021 20.3987C17.0021 20.7499 16.885 21.0426 16.6509 21.2768Z" fill="white"/>
<path d="M33.6862 18.2912C34.8177 18.2912 35.7351 17.3739 35.7351 16.2423C35.7351 15.1107 34.8177 14.1934 33.6862 14.1934C32.5546 14.1934 31.6372 15.1107 31.6372 16.2423C31.6372 17.3739 32.5546 18.2912 33.6862 18.2912Z" fill="white"/>
<path d="M33.6862 26.6039C34.8177 26.6039 35.7351 25.6866 35.7351 24.555C35.7351 23.4234 34.8177 22.5061 33.6862 22.5061C32.5546 22.5061 31.6372 23.4234 31.6372 24.555C31.6372 25.6866 32.5546 26.6039 33.6862 26.6039Z" fill="white"/>
<path d="M29.5298 22.4474C30.6614 22.4474 31.5787 21.5301 31.5787 20.3985C31.5787 19.2669 30.6614 18.3496 29.5298 18.3496C28.3982 18.3496 27.4809 19.2669 27.4809 20.3985C27.4809 21.5301 28.3982 22.4474 29.5298 22.4474Z" fill="white"/>
<path d="M37.8425 22.4474C38.9741 22.4474 39.8914 21.5301 39.8914 20.3985C39.8914 19.2669 38.9741 18.3496 37.8425 18.3496C36.7109 18.3496 35.7936 19.2669 35.7936 20.3985C35.7936 21.5301 36.7109 22.4474 37.8425 22.4474Z" fill="white"/>
</g>
<defs>
<clipPath id="clip0">
<rect width="47" height="47" fill="white"/>
</clipPath>
</defs>
</svg>
