<svg width="38" height="38" viewBox="0 0 38 38" fill="none" xmlns="http://www.w3.org/2000/svg">
<path d="M36.6703 17.5184C36.3163 16.3779 35.2365 15.6165 34.0427 15.6643L33.7881 15.6747C33.0412 15.7052 32.3387 16.0131 31.8125 16.5393L27.8762 20.4342C27.7829 20.2918 27.676 20.1564 27.5542 20.03C27.0367 19.4923 26.3117 19.1842 25.5655 19.1842H20.0132C18.9656 19.1842 17.9441 19.0483 16.9765 18.7806C14.4564 18.0831 12.0517 18.5867 10.0224 20.2368C9.16634 20.9333 8.55099 21.6932 8.17352 22.2303C7.74604 21.933 7.23745 21.7771 6.70995 21.7861C6.04089 21.7976 5.41685 22.0689 4.95305 22.551L1.36424 26.2764C1.09918 26.5514 1.10462 26.9887 1.37685 27.2572L4.2629 30.1039C4.53709 30.3742 4.97914 30.3714 5.24985 30.097C5.52013 29.8226 5.5173 29.3809 5.2429 29.1102L2.84782 26.748L5.95805 23.519C6.16266 23.3066 6.43815 23.1866 6.73321 23.1818C7.0311 23.1764 7.30747 23.2872 7.51947 23.4927L13.0687 28.8778C13.2803 29.0833 13.3992 29.3585 13.4033 29.6534C13.4075 29.9485 13.2964 30.227 13.0904 30.4383L10.0341 33.5742L9.24766 32.8252C8.96847 32.5592 8.52686 32.5701 8.26093 32.8493C7.99544 33.1285 8.00631 33.5701 8.2855 33.8356L9.57121 35.0604C9.70646 35.1889 9.87954 35.2529 10.0524 35.2529C10.2342 35.2529 10.4155 35.1822 10.5523 35.0422L14.09 31.4123C14.5564 30.9339 14.808 30.3022 14.7989 29.6343C14.7945 29.3288 14.7354 29.0324 14.6271 28.7562L15.8732 28.6112C16.4514 28.544 17.0395 28.5097 17.6216 28.5097H26.0697C26.1991 28.5097 26.33 28.5042 26.459 28.4934L27.2685 28.426C28.0891 28.3579 28.8799 28.0731 29.5559 27.603C29.8877 27.372 30.1887 27.0989 30.4505 26.7908L36.1432 20.0933C36.7516 19.3777 36.9484 18.4153 36.6703 17.5184ZM35.0799 19.1894L29.387 25.8869C29.2032 26.1031 28.9919 26.2948 28.7588 26.4571C28.2841 26.7873 27.7286 26.9872 27.1528 27.0352L26.3428 27.1026C26.2526 27.1102 26.1604 27.1142 26.0697 27.1142H17.6216C16.9858 27.1142 16.3433 27.1513 15.7121 27.2246L13.6943 27.4594L9.23027 23.155C9.53425 22.7045 10.0928 21.9783 10.903 21.3196C12.5908 19.9474 14.5088 19.5456 16.6042 20.1255C17.6929 20.4268 18.8399 20.5795 20.0132 20.5795H25.5655C25.9345 20.5795 26.293 20.7321 26.5492 20.9978C26.7364 21.1922 26.8551 21.4305 26.904 21.6804C26.9032 21.7434 26.911 21.8063 26.9273 21.8674C26.9458 22.1946 26.8477 22.5282 26.6299 22.7993L26.6083 22.8263C26.3481 23.1507 25.9599 23.337 25.5438 23.337H20.7101C20.3246 23.337 20.0124 23.6493 20.0124 24.0346C20.0124 24.4201 20.3246 24.7326 20.7101 24.7326H25.5438C26.3855 24.7326 27.1702 24.356 27.697 23.6991L27.7186 23.6723C28.1221 23.1696 28.3222 22.5612 28.3241 21.9541L32.7964 17.5286C33.0769 17.2483 33.4491 17.085 33.8451 17.069L34.0999 17.0587C34.6627 17.0348 35.1708 17.3947 35.3374 17.932C35.4733 18.3699 35.3769 18.84 35.0799 19.1894Z" fill="#4501AF"/>
<path d="M6.71753 24.6536C5.67557 24.6536 4.828 25.5014 4.828 26.5431C4.828 27.5853 5.67557 28.4331 6.71753 28.4331C7.75949 28.4331 8.60728 27.5853 8.60728 26.5431C8.60728 25.5014 7.75949 24.6536 6.71753 24.6536ZM6.71753 27.0373C6.44509 27.0373 6.2233 26.8158 6.2233 26.5431C6.2233 26.2709 6.44509 26.0493 6.71753 26.0493C6.98977 26.0493 7.21155 26.2709 7.21155 26.5431C7.21155 26.8158 6.98977 27.0373 6.71753 27.0373Z" fill="#4501AF"/>
<path d="M17.7451 23.4401L17.7092 23.4485C17.3341 23.5366 17.101 23.9123 17.1895 24.2874C17.2648 24.6088 17.5516 24.8258 17.8682 24.8258C17.9208 24.8258 17.9747 24.8195 18.0282 24.8069L18.0643 24.7986C18.4394 24.7105 18.672 24.3348 18.584 23.9597C18.4959 23.5847 18.1204 23.3524 17.7451 23.4401Z" fill="#4501AF"/>
<path d="M6.62774 30.8252L6.59165 30.8337C6.21657 30.922 5.98391 31.2973 6.07197 31.6723C6.14742 31.9939 6.434 32.2107 6.75059 32.2107C6.80365 32.2107 6.85714 32.2048 6.91106 32.1922L6.94694 32.184C7.32202 32.0959 7.5549 31.7202 7.46662 31.3451C7.37856 30.9698 7.00282 30.7374 6.62774 30.8252Z" fill="#4501AF"/>
<path d="M21.5916 17.3817C25.6638 17.3817 28.9766 14.0688 28.9766 9.99666C28.9766 5.92449 25.6638 2.61139 21.5916 2.61139C19.9212 2.61139 18.3457 3.15542 17.0352 4.18433C16.7358 4.41917 16.4525 4.67922 16.1928 4.95754C15.8045 5.3735 15.4642 5.83425 15.1818 6.32631C14.5436 7.43851 14.2065 8.70791 14.2065 9.99666C14.2065 14.0688 17.5194 17.3817 21.5916 17.3817ZM16.3922 7.02081C16.6214 6.62138 16.8973 6.2476 17.2128 5.90992C17.4235 5.68378 17.6538 5.47287 17.8967 5.28218C18.9595 4.44809 20.2372 4.00712 21.5916 4.00712C24.894 4.00712 27.5811 6.69378 27.5811 9.99666C27.5811 13.2993 24.894 15.9862 21.5916 15.9862C18.2889 15.9862 15.6018 13.2993 15.6018 9.99666C15.6018 8.951 15.8752 7.92209 16.3922 7.02081Z" fill="#4501AF"/>
<path d="M22.2104 12.3851C21.929 12.5523 21.5635 12.6116 21.3156 12.6116C20.8451 12.6116 20.4326 12.0572 20.4326 11.4253C20.4326 11.04 20.1202 10.7275 19.7349 10.7275C19.3494 10.7275 19.0371 11.04 19.0371 11.4253C19.0371 12.6338 19.7734 13.6506 20.7644 13.9304C20.787 14.2955 21.0893 14.5849 21.46 14.5849C21.8408 14.5849 22.1497 14.2798 22.1571 13.9006C23.165 13.639 24.0347 12.8887 24.0347 11.5773C24.0347 10.005 22.4291 9.14721 21.6046 9.14721C21.5942 9.14721 20.5698 9.05611 20.5698 8.40097C20.5698 7.39488 21.5942 7.36662 21.6046 7.36662C21.7986 7.36662 22.0345 7.48186 22.2204 7.66777C22.3098 7.75735 22.3193 7.7667 22.3193 8.14287C22.3193 8.52817 22.632 8.8391 23.0171 8.8391C23.4024 8.8391 23.7151 8.52556 23.7151 8.14004C23.7151 7.69408 23.7151 7.18875 23.2074 6.68082C22.9021 6.37597 22.5363 6.15897 22.1558 6.05069C22.1345 5.6843 21.8318 5.39337 21.46 5.39337C21.0747 5.39337 20.7623 5.70605 20.7623 6.09135V6.13701C19.9999 6.42033 19.1743 7.09743 19.1743 8.40097C19.1743 9.99979 20.8362 10.5403 21.5996 10.5425C21.8092 10.5595 22.639 10.9269 22.639 11.5771C22.639 11.9598 22.507 12.2087 22.2104 12.3851Z" fill="#4501AF"/>
</svg>
