<svg width="44" height="44" viewBox="0 0 44 44" fill="none" xmlns="http://www.w3.org/2000/svg">
<path d="M26.2109 22C26.2109 19.6743 24.3257 17.7891 22 17.7891C19.6743 17.7891 17.7891 19.6743 17.7891 22C17.7891 24.3257 19.6743 26.2109 22 26.2109C24.3257 26.2109 26.2109 24.3257 26.2109 22Z" fill="white"/>
<path d="M31.8479 29.4506C31.6455 29.9991 31.3225 30.4956 30.9029 30.9031C30.4954 31.3228 29.9992 31.6457 29.4504 31.8481C29.0052 32.021 28.3365 32.2268 27.1049 32.2828C25.7725 32.3436 25.373 32.3567 22 32.3567C18.6266 32.3567 18.2271 32.3439 16.8951 32.2832C15.6635 32.2268 14.9944 32.021 14.5496 31.8481C14.0008 31.6457 13.5043 31.3228 13.0971 30.9031C12.6775 30.4956 12.3545 29.9995 12.1518 29.4506C11.9789 29.0055 11.7731 28.3364 11.717 27.1048C11.6563 25.7727 11.6432 25.3733 11.6432 21.9999C11.6432 18.6268 11.6563 18.2274 11.717 16.895C11.7731 15.6633 11.9789 14.9946 12.1518 14.5495C12.3545 14.0006 12.6771 13.5045 13.0967 13.097C13.5043 12.6773 14.0004 12.3544 14.5493 12.152C14.9944 11.9788 15.6635 11.773 16.8951 11.7169C18.2271 11.6562 18.6263 11.6434 21.9997 11.6434C25.3734 11.6434 25.7729 11.6562 27.1046 11.7169C28.3362 11.773 29.0052 11.9788 29.4504 12.152C30.5521 12.577 31.4229 13.4478 31.8479 14.5495C32.0208 14.9946 32.2266 15.6633 32.283 16.895C32.3437 18.2274 32.3565 18.6268 32.3565 21.9999C32.3565 25.3733 32.3437 25.7727 32.283 27.1048C32.2269 28.3364 32.0211 29.0055 31.8479 29.4506ZM22 15.5133C18.4171 15.5133 15.5127 18.4174 15.5127 22.0002C15.5127 25.5831 18.4171 28.4872 22 28.4872C25.5825 28.4872 28.4869 25.5831 28.4869 22.0002C28.4869 18.4174 25.5825 15.5133 22 15.5133ZM28.7434 27.2276C27.9062 27.2276 27.2274 27.9064 27.2274 28.7436C27.2274 29.5808 27.9062 30.2596 28.7434 30.2596C29.5806 30.2596 30.2594 29.5808 30.2594 28.7436C30.2591 27.9064 29.5806 27.2276 28.7434 27.2276Z" fill="white"/>
<path d="M22 44C9.85159 44 0 34.1484 0 22C0 9.85159 9.85159 0 22 0C34.1484 0 44 9.85159 44 22C44 34.1484 34.1484 44 22 44ZM34.5566 16.7917C34.4955 15.4469 34.2817 14.5288 33.9695 13.7252C33.3132 12.0282 31.9718 10.6868 30.2748 10.0305C29.4715 9.71832 28.5531 9.50482 27.2086 9.44339C25.8615 9.38196 25.4311 9.36719 22.0003 9.36719C18.5692 9.36719 18.1392 9.38196 16.7917 9.44339C15.4473 9.50482 14.5288 9.71832 13.7255 10.0305C12.8822 10.3477 12.1189 10.8449 11.4878 11.4878C10.8452 12.1185 10.3481 12.8822 10.0309 13.7252C9.71866 14.5285 9.50482 15.4469 9.44373 16.7914C9.38162 18.1389 9.36719 18.5692 9.36719 22C9.36719 25.4308 9.38162 25.8611 9.44339 27.2083C9.50449 28.5531 9.71799 29.4712 10.0302 30.2748C10.3474 31.1178 10.8449 31.8815 11.4878 32.5122C12.1185 33.1551 12.8822 33.6523 13.7252 33.9695C14.5288 34.2817 15.4469 34.4952 16.7917 34.5566C18.1389 34.618 18.5692 34.6328 22 34.6328C25.4308 34.6328 25.8611 34.618 27.2083 34.5563C28.5531 34.4952 29.4712 34.2817 30.2748 33.9698C31.1178 33.6526 31.8815 33.1551 32.5126 32.5122C33.1551 31.8811 33.6526 31.1178 33.9695 30.2748C34.282 29.4712 34.4955 28.5531 34.5569 27.2083C34.6184 25.8611 34.6328 25.4308 34.6328 22C34.6328 18.5692 34.6184 18.1389 34.5566 16.7917Z" fill="white"/>
</svg>
