<svg width="46" height="46" viewBox="0 0 46 46" fill="none" xmlns="http://www.w3.org/2000/svg">
<path d="M23 0C10.2994 0 0 10.2994 0 23C0 35.7006 10.2994 46 23 46C35.7006 46 46 35.7006 46 23C46 10.2994 35.7006 0 23 0ZM16.3165 34.7695H10.7149V17.9172H16.3165V34.7695ZM13.5159 15.616H13.4794C11.5997 15.616 10.384 14.322 10.384 12.7048C10.384 11.0511 11.6369 9.79297 13.5531 9.79297C15.4693 9.79297 16.6485 11.0511 16.685 12.7048C16.685 14.322 15.4693 15.616 13.5159 15.616ZM36.5145 34.7695H30.9136V25.7539C30.9136 23.4882 30.1026 21.9429 28.0758 21.9429C26.5285 21.9429 25.6069 22.9853 25.2019 23.9914C25.0538 24.3515 25.0176 24.8548 25.0176 25.3584V34.7695H19.4164C19.4164 34.7695 19.4898 19.4982 19.4164 17.9172H25.0176V20.3033C25.762 19.155 27.0939 17.5216 30.0657 17.5216C33.7511 17.5216 36.5145 19.9302 36.5145 25.1064V34.7695Z" fill="white"/>
</svg>
