<svg width="44" height="44" viewBox="0 0 44 44" fill="none" xmlns="http://www.w3.org/2000/svg">
<path d="M22 0C9.85159 0 0 9.85159 0 22C0 34.1484 9.85159 44 22 44C34.1484 44 44 34.1484 44 22C44 9.85159 34.1484 0 22 0ZM35.1756 29.1033C35.0172 29.4725 34.3048 29.9972 31.8133 30.3819C31.6092 30.4131 31.5303 30.6787 31.4088 31.2349C31.3645 31.4373 31.3199 31.6364 31.2584 31.8456C31.2054 32.0268 31.0923 32.1118 30.9019 32.1118H30.871C30.7388 32.1118 30.5515 32.0879 30.3134 32.0413C29.8915 31.959 29.4185 31.8831 28.8166 31.8831C28.4651 31.8831 28.1016 31.9134 27.736 31.9738C26.9884 32.0987 26.3536 32.5465 25.6815 33.0218C24.705 33.7127 23.6969 34.4254 22.1255 34.4254C22.0571 34.4254 21.9903 34.423 21.9228 34.42C21.8798 34.4237 21.8352 34.4254 21.7905 34.4254C20.2198 34.4254 19.2117 33.713 18.2369 33.0232C17.5638 32.5478 16.9283 32.0987 16.1797 31.9738C15.8145 31.9134 15.451 31.8831 15.1002 31.8831C14.4667 31.8831 13.9679 31.9808 13.603 32.052C13.3817 32.0953 13.1904 32.1326 13.045 32.1326C12.8933 32.1326 12.7292 32.0997 12.6577 31.8556C12.5956 31.6438 12.5509 31.4394 12.5073 31.2406C12.3958 30.731 12.3169 30.4175 12.1034 30.3846C9.61224 29.9999 8.8989 29.4749 8.74011 29.1026C8.71796 29.0496 8.70453 28.9958 8.70184 28.9435C8.69379 28.8001 8.79483 28.6736 8.93649 28.6508C12.7657 28.0203 14.4832 24.1058 14.5547 23.9396C14.5563 23.9356 14.5583 23.9309 14.5607 23.9265C14.795 23.4515 14.8407 23.039 14.6977 22.7009C14.4348 22.0819 13.5775 21.8097 13.0101 21.6297C12.8715 21.5854 12.7399 21.5441 12.6358 21.5028C11.5035 21.0554 11.4095 20.5961 11.4542 20.3622C11.5301 19.963 12.0631 19.6847 12.4945 19.6847C12.6123 19.6847 12.7164 19.7059 12.804 19.7468C13.3136 19.9852 13.7725 20.1064 14.1689 20.1064C14.7161 20.1064 14.9551 19.8764 14.9843 19.8462C14.9699 19.587 14.9528 19.3161 14.9353 19.0365C14.8212 17.2264 14.6795 14.9763 15.2529 13.6923C16.9696 9.8432 20.6099 9.54376 21.6851 9.54376C21.7126 9.54376 22.1564 9.53906 22.1564 9.53906H22.2199C23.2971 9.53906 26.9461 9.8385 28.6635 13.6899C29.2365 14.9746 29.0949 17.2264 28.9807 19.0355L28.9757 19.1144C28.9599 19.3661 28.9445 19.6109 28.9317 19.8455C28.9593 19.8737 29.1791 20.0849 29.675 20.104H29.6753C30.0529 20.0896 30.486 19.9691 30.9617 19.7468C31.1006 19.6814 31.2557 19.6676 31.3608 19.6676C31.5223 19.6676 31.6851 19.6992 31.8204 19.7552L31.8291 19.7589C32.2135 19.8952 32.4656 20.1644 32.4709 20.4464C32.476 20.7116 32.2732 21.1104 31.2802 21.5028C31.1772 21.5435 31.0456 21.5851 30.9059 21.6294C30.338 21.8093 29.4813 22.0819 29.2184 22.7006C29.0751 23.039 29.1207 23.4509 29.3554 23.9259C29.3574 23.9306 29.3597 23.9349 29.3618 23.9396C29.4329 24.1058 31.1483 28.019 34.9799 28.6504C35.1212 28.6736 35.2226 28.8001 35.2146 28.9428C35.2115 28.9965 35.1985 29.0506 35.1756 29.1033Z" fill="white"/>
</svg>
