<svg width="48" height="48" viewBox="0 0 48 48" fill="none" xmlns="http://www.w3.org/2000/svg">
<path d="M21.04 8.8L25.3032 2.6344C25.7521 1.9857 26.4911 1.599 27.28 1.6H48V0H27.28C25.9674 0 24.7383 0.644 23.9912 1.7232L19.72 7.8872C18.4668 9.6984 18.9191 12.1826 20.7303 13.4358C20.8242 13.5008 20.9208 13.5617 21.02 13.6184C21.8079 14.0639 22.725 14.2251 23.6176 14.0752C23.571 14.4979 23.5918 14.9254 23.6792 15.3416L22.9928 16.8112L20.8184 15.7968C20.4181 15.61 19.9421 15.7829 19.7552 16.1832L18.4 19.0832C18.2128 19.4834 18.3854 19.9596 18.7856 20.1468C18.7859 20.1469 18.7861 20.1471 18.7864 20.1472L20.9032 21.1344L16.4384 29.0544C15.634 28.972 14.8218 29.0936 14.0768 29.408L13.6768 26.9688C13.6089 26.5358 13.2028 26.2398 12.7698 26.3077C12.766 26.3083 12.7622 26.3089 12.7584 26.3096L10.3896 26.6984L10.2984 26.1472L12.5792 21.1128C12.7618 20.7105 12.5837 20.2363 12.1813 20.0537C12.0372 19.9883 11.8769 19.9671 11.7208 19.9928L10.0616 20.2648C9.4873 18.7703 8.0797 17.7602 6.48 17.6944L6.208 16.0352L4.6296 16.2944L4.9016 17.9536C3.4057 18.527 2.3942 19.9353 2.3288 21.536L0.6704 21.8088C0.2344 21.8804 -0.0609 22.2919 0.0107 22.7279C0.0363 22.8837 0.1075 23.0285 0.2152 23.144L3.9848 27.1848L4.0752 27.7352L1.7072 28.124C1.2725 28.1955 0.9775 28.605 1.0472 29.04L1.5664 32.1976C1.6298 32.5837 1.9631 32.8673 2.3544 32.868C2.3981 32.8682 2.4418 32.8645 2.4848 32.8568L4.7904 32.48L5.5712 41.54C3.8156 42.4877 2.8292 44.4225 3.0936 46.4H0V48H48V46.4H13.84L16.7904 45.92C17.2264 45.8485 17.5219 45.4371 17.4505 45.0011C17.4505 45.001 17.4505 45.0009 17.4505 45.0008L17.3209 44.2112C16.9857 42.1911 15.408 40.605 13.3897 40.2592L11.7761 33.6512L23.2393 38.9984C23.6396 39.1852 24.1156 39.0122 24.3025 38.612L24.6409 37.8872C25.5165 36.0356 25.1038 33.8311 23.6177 32.4216L26.8233 23.8984L28.9393 24.88C29.0454 24.9291 29.1608 24.9545 29.2777 24.9544C29.3708 24.9548 29.4631 24.9385 29.5505 24.9064C29.7501 24.834 29.9127 24.6852 30.0025 24.4928L31.3553 21.5928C31.542 21.1924 31.3687 20.7164 30.9683 20.5297C30.9682 20.5297 30.9682 20.5296 30.9681 20.5296L28.7936 19.52L29.4792 18.0504C29.5784 17.9968 29.668 17.9288 29.7624 17.868C30.2237 19.6058 31.802 20.8117 33.6 20.8H48V19.2H33.6C32.9235 19.1995 32.2785 18.914 31.8232 18.4136C31.3644 17.9119 31.1419 17.2379 31.212 16.5616C31.3808 15.3031 32.4682 14.3724 33.7376 14.4H36.8C39.0091 14.4 40.8 12.6091 40.8 10.4C40.8 8.1909 39.0091 6.4 36.8 6.4H28.8C28.5326 6.4 28.2828 6.5335 28.1344 6.756L24.984 11.4816C24.9664 11.5088 24.9424 11.5304 24.9232 11.5568C24.7923 11.6799 24.6699 11.8116 24.5568 11.9512C23.7942 12.6162 22.6951 12.7278 21.8144 12.2296C20.671 11.574 20.2756 10.1157 20.9311 8.9724C20.965 8.9134 21.0013 8.8559 21.04 8.8ZM5.9368 19.3224C6.9408 19.1574 7.9398 19.6434 8.4296 20.5352L5.3696 21.04L3.964 21.2704C4.1421 20.2685 4.9327 19.4878 5.9368 19.3224ZM2.4048 23.1456L6.456 22.48L9.6136 21.9616L10.5056 21.8152L8.7456 25.7088C8.6805 25.8525 8.6593 26.0123 8.6848 26.168L8.8144 26.9576L6.7824 27.292L5.6568 27.4768L5.5272 26.6864C5.5017 26.5307 5.4307 26.3859 5.3232 26.2704L2.4048 23.1456ZM12.064 41.8264C13.8084 41.5429 15.4536 42.7232 15.744 44.4664L4.688 46.2816C4.4017 44.5366 5.5833 42.8896 7.328 42.6016L9.696 42.2128L12.064 41.8264ZM6.3736 32.2224L9.3672 31.7304L9.648 31.6848L11.7416 40.2584L7.132 41.016L6.3736 32.2224ZM11.5896 31.7952L11.4144 32.1712L11.232 31.4248L11.8448 31.324C11.7509 31.4761 11.6657 31.6335 11.5896 31.7952ZM3.0152 31.1552L2.756 29.5768L12.2296 28.0208L12.488 29.6L3.0152 31.1552ZM23.1904 37.2064L23.1896 37.2096L13.04 32.472C13.7868 30.8702 15.6906 30.1771 17.2924 30.9238C17.2925 30.9239 17.2926 30.9239 17.2928 30.924L21.6432 32.9536C23.2448 33.7007 23.9375 35.6048 23.1904 37.2064ZM22.2608 31.48L20.144 30.4888L18.0264 29.5016L22.36 21.8128L25.368 23.216L22.2608 31.48ZM29.5664 21.6472L28.8904 23.0968L26.72 22.08L22.3696 20.0504L20.1968 19.0368L20.8728 17.5864L29.5664 21.6472ZM29.228 8H36.8C38.1255 8 39.2 9.0745 39.2 10.4C39.2 11.7255 38.1255 12.8 36.8 12.8H33.7376C32.9153 12.8031 32.1121 13.0474 31.4272 13.5024C31.1958 12.641 30.6844 11.8811 29.9736 11.3424L30.6768 9.8024L29.2272 9.1256L28.5248 10.6624C28.1971 10.586 27.8613 10.55 27.5248 10.5552L29.228 8ZM25.248 15.76C25.3301 15.5848 25.3455 15.3857 25.2912 15.2C25.1234 14.6444 25.1655 14.0466 25.4096 13.52C25.4789 13.3716 25.5631 13.2306 25.6608 13.0992C25.7931 12.9791 25.9168 12.85 26.0312 12.7128C27.0366 11.8524 28.5491 11.9699 29.4095 12.9753C30.0212 13.6901 30.158 14.6967 29.7592 15.5488C29.5128 16.074 29.0824 16.4907 28.5496 16.72C28.3731 16.7986 28.231 16.9384 28.1496 17.1136L27.3448 18.8384L24.4448 17.4848L25.248 15.76Z" fill="white"/>
<path d="M16.0839 14.0426L14.484 17.2424L15.915 17.958L17.5149 14.7582L16.0839 14.0426Z" fill="white"/>
<path d="M11.9182 14.0418L10.4872 14.7573L12.0871 17.9571L13.5181 17.2416L11.9182 14.0418Z" fill="white"/>
<path d="M27.2 36.8V37.12C27.2003 38.6535 26.4331 40.0854 25.156 40.9344L26.044 42.2656C27.7664 41.1202 28.801 39.1885 28.8 37.12V36.8H27.2Z" fill="white"/>
</svg>
